<?xml version="1.0" encoding="utf-8"?>
<!-- Generator: Adobe Illustrator 24.2.1, SVG Export Plug-In . SVG Version: 6.00 Build 0)  -->
<svg version="1.1" id="Layer_1" focusable="false" xmlns="http://www.w3.org/2000/svg" xmlns:xlink="http://www.w3.org/1999/xlink"
	 x="0px" y="0px" viewBox="0 0 512 512" style="enable-background:new 0 0 512 512;" xml:space="preserve">
<style type="text/css">
	.st0{fill:#D9DCE3;}
	.st1{fill:#073460;}
</style>
<path class="st0" d="M75.9,107.6C125.8,67,186,46.7,256.5,46.7S387.2,67,437.1,107.6S512,197.1,512,254.3S487,360.4,437.1,401
	S327,461.9,256.5,461.9c-37.3,0-72.9-6.3-106.8-19c-43.3,34-90.2,50.9-140.7,50.9c-1.3,0-2.7-0.5-4-1.5s-2.3-2.2-3-3.5
	c-1.3-3.3-0.8-6.2,1.5-8.5s6.3-7,12-14c5.6-7,13.1-18.6,22.5-34.9c9.3-16.3,16-31.8,20-46.4C20,347.1,1,303.5,1,254.3
	C1,197.1,25.9,148.2,75.9,107.6z"/>
<path class="st1" d="M368.3,246.3v16c0,4.7-1.5,8.5-4.5,11.5s-6.8,4.5-11.5,4.5h-71.9v71.9c0,4.7-1.5,8.5-4.5,11.5
	s-6.8,4.5-11.5,4.5h-16c-4.7,0-8.5-1.5-11.5-4.5s-4.5-6.8-4.5-11.5v-71.9h-71.8c-4.7,0-8.5-1.5-11.5-4.5s-4.5-6.8-4.5-11.5v-16
	c0-4.6,1.5-8.5,4.5-11.5s6.8-4.5,11.5-4.5h71.8v-71.9c0-4.6,1.5-8.5,4.5-11.5s6.8-4.5,11.5-4.5h16c4.7,0,8.5,1.5,11.5,4.5
	s4.5,6.8,4.5,11.5v71.9h71.9c4.7,0,8.5,1.5,11.5,4.5C366.8,237.8,368.3,241.7,368.3,246.3z"/>
</svg>
