<svg id="Layer_1" data-name="Layer 1" xmlns="http://www.w3.org/2000/svg" viewBox="0 0 70 70">
  <defs>
    <style>
      .cls-1{isolation:isolate}.cls-3{fill:#fff}
    </style>
  </defs>
  <g id="_" class="cls-1">
    <path d="M56.06 13.94A28.69 28.69 0 0164.76 35a28.69 28.69 0 01-8.7 21.06A28.69 28.69 0 0135 64.76a28.69 28.69 0 01-21.06-8.7A28.69 28.69 0 015.24 35a28.69 28.69 0 018.7-21.06A28.69 28.69 0 0135 5.24a28.69 28.69 0 0121.06 8.7z" fill="#fecb00"/>
  </g>
  <path class="cls-3" d="M34.9 40.93a5.3 5.3 0 105.3 5.3 5.31 5.31 0 00-5.3-5.3zM29.87 21.88l.86 15.67a1.38 1.38 0 001.38 1.31h5.59a1.38 1.38 0 001.38-1.31l.86-15.67a1.38 1.38 0 00-1.3-1.45h-7.39a1.38 1.38 0 00-1.38 1.38v.07z"/>
</svg>
