<svg id="Layer_1" data-name="Layer 1" xmlns="http://www.w3.org/2000/svg" viewBox="0 0 640 512"><path d="M624,208H560V144a16,16,0,0,0-16-16H512a16,16,0,0,0-16,16v64H432a16,16,0,0,0-16,16v32a16,16,0,0,0,16,16h64v64a16,16,0,0,0,16,16h32a16,16,0,0,0,16-16V272h64a16,16,0,0,0,16-16V224A16,16,0,0,0,624,208ZM224,256A128,128,0,1,0,96,128,128,128,0,0,0,224,256Zm89.6,32H296.9a174.08,174.08,0,0,1-145.8,0H134.4A134.43,134.43,0,0,0,0,422.4V464a48,48,0,0,0,48,48H400a48,48,0,0,0,48-48V422.4A134.43,134.43,0,0,0,313.6,288Z" style="fill:#707070"/></svg>