<svg id="Layer_1" data-name="Layer 1" xmlns="http://www.w3.org/2000/svg" viewBox="0 0 694.01 564.5"><path d="M326.25,376.31a175.38,175.38,0,0,1,18.2-77.5,133.25,133.25,0,0,0-24.6-2.5h-16.7a174.08,174.08,0,0,1-145.8,0h-16.7A134.43,134.43,0,0,0,6.25,430.71v41.6a48,48,0,0,0,48,48h347.1C356.05,488.41,326.25,435.81,326.25,376.31Zm-96-112a128,128,0,1,0-128-128A128,128,0,0,0,230.25,264.31Z" transform="translate(-6.25 -8.31)" style="fill:#707070"/><path d="M695.75,528.31l-64.1-64.1a15.36,15.36,0,0,0-10.9-4.5h-10.5a132.94,132.94,0,1,0-23,23.1v10.5a15.36,15.36,0,0,0,4.5,10.9l64.1,64.1a15.45,15.45,0,0,0,21.8,0l18.2-18.2A15.54,15.54,0,0,0,695.75,528.31ZM505,459.71a82.3,82.3,0,1,1,82.3-82.3A82.3,82.3,0,0,1,505,459.71Z" transform="translate(-6.25 -8.31)" style="fill:#707070"/></svg>