<svg xmlns="http://www.w3.org/2000/svg" width="54" height="45" viewBox="0 0 54 45">
  <g id="download_icon" data-name="download icon" transform="translate(-1724 -591)">
    <g id="Rectangle_180" data-name="Rectangle 180" transform="translate(1724 591)" fill="#fff" stroke="#707070" stroke-width="0.5">
      <rect width="54" height="45" rx="7" stroke="none"/>
      <rect x="0.25" y="0.25" width="53.5" height="44.5" rx="6.75" fill="none"/>
    </g>
    <path id="download" d="M9.476,0h3.51a1.05,1.05,0,0,1,1.053,1.053v7.37h3.847a.876.876,0,0,1,.619,1.5L11.831,16.6a.85.85,0,0,1-1.2,0L3.953,9.919a.876.876,0,0,1,.619-1.5H8.423V1.053A1.05,1.05,0,0,1,9.476,0ZM22.461,16.495v4.913a1.05,1.05,0,0,1-1.053,1.053H1.053A1.05,1.05,0,0,1,0,21.408V16.495a1.05,1.05,0,0,1,1.053-1.053H7.488l2.15,2.15a2.248,2.248,0,0,0,3.185,0l2.15-2.15h6.436A1.05,1.05,0,0,1,22.461,16.495Zm-5.44,3.86a.877.877,0,1,0-.877.877A.88.88,0,0,0,17.021,20.355Zm2.808,0a.877.877,0,1,0-.877.877A.88.88,0,0,0,19.829,20.355Z" transform="translate(1740 601.904)" fill="#073460"/>
  </g>
</svg>
