<svg xmlns="http://www.w3.org/2000/svg" width="40" height="35.556" viewBox="0 0 40 35.556"><defs><style>.a{fill:#c92742;}</style></defs><path class="a" d="M39.55,30.556a3.335,3.335,0,0,1-2.887,5H3.337a3.335,3.335,0,0,1-2.887-5L17.112,1.666a3.335,3.335,0,0,1,5.775,0L39.55,30.556ZM20,24.583a3.194,3.194,0,1,0,3.194,3.194A3.194,3.194,0,0,0,20,24.583ZM16.967,13.1l.515,9.444a.833.833,0,0,0,.832.788h3.371a.833.833,0,0,0,.832-.788l.515-9.444a.833.833,0,0,0-.832-.879H17.8a.833.833,0,0,0-.832.879Z" transform="translate(0 0)"/></svg>