<svg xmlns="http://www.w3.org/2000/svg" width="30" height="30" viewBox="0 0 30 30"><defs><style>.a{fill:gray;}</style></defs><path class="a" d="M23,8A15,15,0,1,0,38,23,15,15,0,0,0,23,8Zm0,27.1A12.1,12.1,0,1,1,35.1,23,12.09,12.09,0,0,1,23,35.1Zm6.487-15.435c0,4.056-4.38,4.118-4.38,5.617v.383a.726.726,0,0,1-.726.726H21.62a.726.726,0,0,1-.726-.726v-.524c0-2.162,1.639-3.026,2.878-3.721,1.062-.6,1.713-1,1.713-1.789,0-1.043-1.331-1.735-2.406-1.735-1.4,0-2.05.664-2.96,1.813a.726.726,0,0,1-1.008.128l-1.683-1.276a.727.727,0,0,1-.16-.99A6.8,6.8,0,0,1,23.35,14.29C26.318,14.29,29.487,16.607,29.487,19.661ZM25.54,29.774A2.54,2.54,0,1,1,23,27.234,2.543,2.543,0,0,1,25.54,29.774Z" transform="translate(-8 -8)"/></svg>