<svg xmlns="http://www.w3.org/2000/svg" viewBox="0 0 576 512">
  <path d="M280.4 148.3L96 300.1V464c0 8.8 7.2 16 16 16l112.1-.3c8.8 0 15.9-7.2 15.9-16V368c0-8.8 7.2-16 16-16h64c8.8 0 16 7.2 16 16v95.6c0 8.8 7.1 16 15.9 16h.1l112 .3c8.8 0 16-7.2 16-16V300L295.7 148.3c-4.5-3.6-10.9-3.6-15.3 0zm291.2 103.2L318.5 43c-17.7-14.6-43.3-14.6-61 0L4.3 251.5c-5.1 4.2-5.8 11.8-1.6 16.9l25.5 31c4.2 5.1 11.8 5.9 16.9 1.6l235.2-193.7c4.5-3.6 10.8-3.6 15.3 0L530.9 301c5.1 4.2 12.7 3.5 16.9-1.6l25.5-31c4.2-5.1 3.5-12.7-1.7-16.9z" fill="#707070"/>
</svg>
