<svg xmlns="http://www.w3.org/2000/svg" width="25.383" height="25.383" viewBox="0 0 25.383 25.383">
  <defs>
    <style>
      .cls-1 {
        fill: none;
        stroke: #707070;
        stroke-width: 2px;
      }
    </style>
  </defs>
  <path id="user-circle" class="cls-1" d="M11.692,8A11.692,11.692,0,1,0,23.383,19.692,11.69,11.69,0,0,0,11.692,8Zm0,4.526a4.149,4.149,0,1,1-4.149,4.149A4.149,4.149,0,0,1,11.692,12.526Zm0,16.217a9.034,9.034,0,0,1-6.906-3.215,5.256,5.256,0,0,1,4.644-2.819,1.154,1.154,0,0,1,.335.052,6.242,6.242,0,0,0,1.928.325,6.218,6.218,0,0,0,1.928-.325,1.154,1.154,0,0,1,.335-.052A5.256,5.256,0,0,1,18.6,25.528,9.034,9.034,0,0,1,11.692,28.743Z" transform="translate(1 -7)"/>
</svg>
