<svg xmlns="http://www.w3.org/2000/svg" viewBox="0 0 512 512">
  <path d="M483.5 28.5l-52.2 52.2C386.5 35.8 324.5 8 256 8 123.2 8 14.8 112.3 8.3 243.5c-.3 6.8 5.2 12.5 12 12.5h28c6.4 0 11.6-5 12-11.3C66.2 141.6 151.5 60 256 60c54.2 0 103.2 21.9 138.6 57.4l-54.1 54.1c-7.6 7.6-2.2 20.5 8.5 20.5h143c6.6 0 12-5.4 12-12V37c0-10.7-12.9-16.1-20.5-8.5zm8.2 227.5h-28c-6.4 0-11.6 5-12 11.3C445.8 370.4 360.5 452 256 452c-54.2 0-103.2-21.9-138.6-57.4l54.1-54.1c7.6-7.6 2.2-20.5-8.5-20.5H20c-6.6 0-12 5.4-12 12v143c0 10.7 12.9 16 20.5 8.5l52.2-52.2C125.5 476.2 187.5 504 256 504c132.8 0 241.2-104.3 247.7-235.5.3-6.8-5.2-12.5-12-12.5z" fill="#0d009f"/>
</svg>
