<svg id="Layer_1" data-name="Layer 1" xmlns="http://www.w3.org/2000/svg" viewBox="0 0 28.35 28.37"><defs><style>.cls-1{fill:#707070;}</style></defs><path class="cls-1" d="M28.1,25.94a.57.57,0,0,1,.15.79.54.54,0,0,1-.15.15L26.88,28.1a.57.57,0,0,1-.79.15.54.54,0,0,1-.15-.15l-6.69-6.7A.63.63,0,0,1,19,21v-.77A11.19,11.19,0,0,1,11.51,23a11.11,11.11,0,0,1-8.13-3.38A11.05,11.05,0,0,1,0,11.5,11.06,11.06,0,0,1,3.38,3.35,11.06,11.06,0,0,1,11.51,0a11.06,11.06,0,0,1,8.13,3.37A11.06,11.06,0,0,1,23,11.48,11.17,11.17,0,0,1,20.19,19h.75a.52.52,0,0,1,.44.22ZM5.26,17.75a8.46,8.46,0,0,0,6.25,2.6,8.54,8.54,0,0,0,6.25-2.6,8.54,8.54,0,0,0,2.6-6.25,8.56,8.56,0,0,0-2.6-6.25,8.56,8.56,0,0,0-6.25-2.6,8.54,8.54,0,0,0-6.25,2.6,8.54,8.54,0,0,0-2.6,6.25A8.46,8.46,0,0,0,5.26,17.75Z" transform="translate(0 0.02)"/></svg>