<svg id="Layer_1" data-name="Layer 1" xmlns="http://www.w3.org/2000/svg" viewBox="0 0 28.35 28.35"><g style="isolation:isolate"><path d="M33.16,29.59a.57.57,0,0,1,0,.94l-1.22,1.22a.57.57,0,0,1-.94,0l-6.69-6.7a.6.6,0,0,1-.22-.44v-.77a11.17,11.17,0,0,1-7.52,2.82,11.09,11.09,0,0,1-8.13-3.38,11.05,11.05,0,0,1-3.38-8.13A11.09,11.09,0,0,1,8.44,7a11.08,11.08,0,0,1,8.13-3.37A11.08,11.08,0,0,1,24.7,7a11.08,11.08,0,0,1,3.37,8.13,11.19,11.19,0,0,1-2.82,7.53H26a.52.52,0,0,1,.44.22ZM10.32,21.4A8.48,8.48,0,0,0,16.57,24a8.51,8.51,0,0,0,6.25-2.6,8.52,8.52,0,0,0,2.6-6.25,8.55,8.55,0,0,0-2.6-6.25,8.55,8.55,0,0,0-6.25-2.6,8.52,8.52,0,0,0-6.25,2.6,8.51,8.51,0,0,0-2.6,6.25A8.48,8.48,0,0,0,10.32,21.4Z" transform="translate(-5.06 -3.65)" style="fill:#fff"/></g></svg>