<svg xmlns="http://www.w3.org/2000/svg" width="30" height="22.862" viewBox="0 0 30 22.862"><defs><style>.a{fill:gray;}</style></defs><path class="a" d="M29.585,76.421l-10,10a1.431,1.431,0,0,1-2.441-1.012V79.7h-8.1a1.425,1.425,0,0,1-1.429-1.429V72.552a1.425,1.425,0,0,1,1.429-1.429h8.1V65.409A1.432,1.432,0,0,1,19.584,64.4l10,10A1.441,1.441,0,0,1,29.585,76.421Zm-18.156,9.7V83.743a.716.716,0,0,0-.714-.714h-5a1.9,1.9,0,0,1-1.9-1.9V69.695a1.9,1.9,0,0,1,1.9-1.9h5a.716.716,0,0,0,.714-.714V64.694a.716.716,0,0,0-.714-.714h-5A5.716,5.716,0,0,0,0,69.695V81.124a5.716,5.716,0,0,0,5.715,5.715h5A.716.716,0,0,0,11.429,86.124Z" transform="translate(0 -63.979)"/></svg>