<svg xmlns="http://www.w3.org/2000/svg" width="34" height="27.203" viewBox="0 0 34 27.203"><defs><style>.a{fill:gray;}</style></defs><path class="a" d="M32.436,19.834a6.233,6.233,0,0,0,0-2.263l1.371-.792a.385.385,0,0,0,.175-.452,7.973,7.973,0,0,0-1.764-3.05.387.387,0,0,0-.478-.074l-1.371.792a6.238,6.238,0,0,0-1.961-1.132V11.28a.387.387,0,0,0-.3-.377,8.016,8.016,0,0,0-3.517,0,.387.387,0,0,0-.3.377v1.583a6.238,6.238,0,0,0-1.961,1.132L20.955,13.2a.389.389,0,0,0-.478.074,7.973,7.973,0,0,0-1.764,3.05.391.391,0,0,0,.175.452l1.371.792a6.232,6.232,0,0,0,0,2.263l-1.371.792a.385.385,0,0,0-.175.452,8.013,8.013,0,0,0,1.764,3.05.387.387,0,0,0,.478.074l1.371-.792a6.238,6.238,0,0,0,1.961,1.132v1.583a.387.387,0,0,0,.3.377,8.016,8.016,0,0,0,3.517,0,.387.387,0,0,0,.3-.377V24.541a6.238,6.238,0,0,0,1.961-1.132l1.371.792a.389.389,0,0,0,.478-.074,7.973,7.973,0,0,0,1.764-3.05.391.391,0,0,0-.175-.452Zm-6.083,1.445A2.577,2.577,0,1,1,28.93,18.7,2.579,2.579,0,0,1,26.353,21.279ZM11.9,13.6A6.8,6.8,0,1,0,5.1,6.8,6.8,6.8,0,0,0,11.9,13.6Zm10.69,12.034c-.122-.064-.244-.138-.361-.207l-.42.244a2.084,2.084,0,0,1-2.577-.388,9.688,9.688,0,0,1-2.136-3.7,2.078,2.078,0,0,1,.951-2.428l.42-.244q-.008-.207,0-.414l-.42-.244a2.076,2.076,0,0,1-.951-2.428c.048-.154.117-.308.17-.462-.2-.016-.4-.064-.606-.064h-.887a9.249,9.249,0,0,1-7.746,0H7.141A7.143,7.143,0,0,0,0,22.442v2.21A2.551,2.551,0,0,0,2.55,27.2h18.7a2.547,2.547,0,0,0,1.445-.452,2.069,2.069,0,0,1-.106-.627Z"/></svg>